<svg xmlns="http://www.w3.org/2000/svg" viewBox="0 0 100 100" fill="none">
  <!-- Continuous line-art peony rose and phoenix logo -->
  <circle cx="50" cy="50" r="44" fill="#F1F5F1" stroke="#D7E2D7" stroke-width="1.5" />
  <path
    d="
      M 35,50 
      C 32,42, 36,36, 44,36 
      C 50,36, 54,41, 52,46 
      C 50,52, 42,53, 38,47 
      C 35,43, 39,38, 44,39 
      C 49,39, 52,44, 47,49 
      C 41,54, 30,56, 27,47 
      C 24,40, 29,29, 39,27 
      C 51,25, 63,33, 61,45
      C 59,51, 54,57, 48,59
      C 40,61, 34,57, 33,49
      
      M 48,59
      C 52,61, 56,63, 60,63
      C 64,63, 68,59, 68,53
      C 68,47, 62,43, 66,37
      C 69,33, 76,31, 82,33
      C 84,34, 86,36, 85,38
      C 83,40, 78,40, 75,43
      C 72,46, 74,51, 72,55
      C 70,59, 64,65, 58,67
      C 52,69, 44,67, 38,71
      C 32,75, 28,81, 30,85
      C 31,87, 34,87, 35,84
      C 37,80, 41,77, 46,77
      C 52,77, 58,81, 64,79
      C 70,77, 74,71, 78,65
      C 82,59, 88,51, 84,43
      C 82,40, 79,40, 77,43
      C 74,46, 75,53, 71,57
      C 68,61, 62,63, 58,63
    "
    stroke="#3B4F3A"
    stroke-width="2.5"
    stroke-linecap="round"
    stroke-linejoin="round"
  />
  <circle cx="66" cy="37" r="3.5" fill="#FBBF24" />
</svg>
